<?xml version="1.0" encoding="UTF-8"?>
<svg id="Layer_2" data-name="Layer 2" xmlns="http://www.w3.org/2000/svg" viewBox="0 0 564.18 175.86">
  <defs>
    <style>
      .cls-1 {
        fill: #353333;
        stroke-width: 0px;
      }
    </style>
  </defs>
  <g id="Layer_1-2" data-name="Layer 1">
    <g>
      <path class="cls-1" d="M87.02,113.46c-2.38,4.64-5.67,8.6-9.88,11.9s-9.24,5.74-15.1,7.32c-5.86,1.58-12.26,2.38-19.21,2.38-5.98,0-11.1-.37-15.37-1.1-4.27-.73-7.81-1.62-10.61-2.65-2.81-1.04-4.91-1.98-6.31-2.84-1.4-.85-2.29-1.28-2.65-1.28s-1.16.73-2.38,2.2c-1.22,1.46-2.32,2.87-3.29,4.21H.55l-.55-36.42h1.83c1.1,3.29,2.5,6.5,4.21,9.61,1.71,3.11,3.57,6.04,5.58,8.78,2.01,2.75,4.15,5.16,6.41,7.23,2.26,2.08,4.42,3.66,6.5,4.76,2.07,1.1,4.82,2.2,8.24,3.29,3.41,1.1,6.71,1.65,9.88,1.65,9.03,0,16.35-2.47,21.96-7.41,5.61-4.94,8.42-11.62,8.42-20.04,0-3.41-.55-6.41-1.65-8.97-1.1-2.56-2.59-4.79-4.48-6.68-1.89-1.89-4.12-3.51-6.68-4.85-2.56-1.34-5.31-2.56-8.23-3.66-2.93-1.1-5.49-2.01-7.69-2.74-2.2-.73-4.24-1.43-6.13-2.1-1.89-.67-3.84-1.34-5.86-2.01-2.01-.67-4.42-1.56-7.23-2.65-3.17-1.22-6.22-2.9-9.15-5.03-2.93-2.13-5.49-4.63-7.69-7.5-2.2-2.87-3.97-6.04-5.31-9.52-1.34-3.48-2.01-7.17-2.01-11.07,0-6.59,1.2-12.26,3.61-17.02,2.4-4.76,5.64-8.72,9.7-11.9,4.06-3.17,8.74-5.52,14.05-7.05,5.31-1.52,10.89-2.29,16.74-2.29,5.49,0,10.19.46,14.09,1.37,3.9.92,7.11,1.92,9.61,3.02,2.5,1.1,4.39,2.1,5.67,3.02,1.28.92,1.98,1.37,2.1,1.37.37,0,1.13-.73,2.29-2.2,1.16-1.46,2.22-2.93,3.2-4.39h2.01v33.85h-2.01c-1.46-4.03-3.36-8.02-5.67-11.99-2.32-3.96-5-7.5-8.05-10.61-3.05-3.11-6.53-5.64-10.43-7.59-3.91-1.95-8.23-2.93-12.99-2.93-3.78,0-7.35.55-10.71,1.65-3.36,1.1-6.29,2.75-8.78,4.94-2.5,2.2-4.46,4.91-5.86,8.14-1.4,3.23-2.1,6.93-2.1,11.07,0,6.47,1.95,11.65,5.84,15.56,3.89,3.91,8.94,7.02,15.15,9.33,2.43.98,4.71,1.83,6.84,2.56,2.13.73,4.23,1.44,6.3,2.1,2.07.67,4.17,1.37,6.3,2.1,2.13.73,4.35,1.53,6.67,2.38,8.27,3.05,14.69,7.47,19.26,13.27,4.56,5.8,6.85,13.02,6.85,21.69,0,5.86-1.19,11.1-3.57,15.74Z"/>
      <path class="cls-1" d="M155.55,133.77v-2.01c3.29-.24,6.04-.64,8.24-1.19,2.2-.55,3.29-1.8,3.29-3.75v-45.75c0-3.54-.25-6.83-.73-9.88-.49-3.05-1.37-5.67-2.65-7.87-1.28-2.2-3.02-3.9-5.22-5.12-2.2-1.22-5-1.83-8.42-1.83-4.39,0-8.11.79-11.16,2.38-3.05,1.59-5.49,3.72-7.32,6.4-.25.37-.58,1.13-1.01,2.29-.43,1.16-.64,2.23-.64,3.2v56.18c0,1.1.3,1.95.92,2.56.61.61,1.4,1.07,2.38,1.37.98.31,2.07.52,3.29.64,1.22.12,2.44.31,3.66.55v1.83h-36.42v-1.83c2.8-.24,5.34-.7,7.59-1.37,2.26-.67,3.39-2.16,3.39-4.48V22.14c0-.98-.09-1.71-.27-2.2-.18-.49-.7-1.04-1.56-1.65-.98-.85-2.29-1.68-3.93-2.47-1.65-.79-3.27-1.68-4.85-2.65v-1.1L128.65.92h1.46l-.55,63.5.37.18c.85-1.71,2.16-3.66,3.92-5.86,1.76-2.2,3.98-4.27,6.66-6.22,2.67-1.95,5.74-3.63,9.21-5.03,3.47-1.4,7.27-2.1,11.4-2.1s7.38.7,10.12,2.1c2.73,1.4,4.92,3.36,6.56,5.86,1.64,2.5,2.8,5.46,3.47,8.88.67,3.42,1,7.14,1,11.16v53.99c0,.86.37,1.59,1.1,2.2.73.61,1.65,1.07,2.74,1.37,1.1.31,2.26.55,3.48.73,1.22.18,2.38.34,3.48.46v1.65h-37.52Z"/>
      <path class="cls-1" d="M271.02,115.02c-1.71,3.36-4.03,6.44-6.95,9.24-2.93,2.81-6.44,5.12-10.52,6.95-4.09,1.83-8.63,2.75-13.63,2.75-6.22,0-11.9-1.16-17.02-3.48-5.12-2.32-9.49-5.58-13.08-9.79-3.6-4.21-6.38-9.15-8.33-14.82-1.95-5.67-2.93-11.68-2.93-18.03,0-5.12.92-10.22,2.75-15.28,1.83-5.06,4.42-9.61,7.78-13.63,3.35-4.03,7.44-7.29,12.26-9.79,4.82-2.5,10.16-3.75,16.01-3.75,4.76,0,9.24.61,13.45,1.83,4.21,1.22,7.87,3.08,10.98,5.58,3.11,2.5,5.64,5.64,7.59,9.42,1.95,3.78,3.11,8.24,3.48,13.36h-58.74c0,.98-.06,2.1-.18,3.39-.12,1.28-.18,2.59-.18,3.93,0,5.12.73,10.04,2.2,14.73,1.46,4.7,3.6,8.85,6.41,12.44,2.81,3.6,6.34,6.44,10.61,8.51,4.27,2.08,9.21,3.11,14.82,3.11,6.1,0,11.44-1.56,16.01-4.67,4.58-3.11,7.59-6.92,9.06-11.44l1.46.37c-.49,2.69-1.59,5.71-3.29,9.06ZM250.07,53.34c-3.11-3.23-7.29-4.85-12.54-4.85-3.42,0-6.5,1.01-9.24,3.02-2.74,2.01-5.12,4.36-7.14,7.05-2.01,2.69-3.57,5.4-4.67,8.14-1.1,2.74-1.77,4.85-2.01,6.31h7.5c2.2,0,4.36-.03,6.5-.09,2.13-.06,4.36-.12,6.68-.18,2.32-.06,4.88-.09,7.69-.09,1.83,0,3.54-.06,5.12-.18,1.58-.12,2.99-.43,4.21-.92.85-.97,1.49-1.89,1.92-2.74.43-.85.64-2.13.64-3.84,0-4.51-1.56-8.39-4.67-11.62Z"/>
      <path class="cls-1" d="M275.96,133.77v-2.01c5.61-.37,9.33-.94,11.16-1.74,1.83-.79,2.75-2.16,2.75-4.12V20.68c0-.97-.09-1.71-.28-2.2-.18-.49-.7-1.04-1.55-1.65-1.1-.61-2.75-1.56-4.94-2.84-2.2-1.28-4.03-2.22-5.49-2.84v-1.1l26.17-8.6h1.28v125.36c0,1.22.27,2.14.82,2.75.55.61,1.37,1.04,2.47,1.28,1.1.25,2.5.4,4.21.46,1.71.06,3.72.21,6.04.46v2.01h-42.64Z"/>
      <path class="cls-1" d="M410.2,104.31c-2.37,5.86-5.75,10.89-10.13,15.1s-9.73,7.5-16.06,9.88c-6.33,2.38-13.44,3.57-21.35,3.57-2.19,0-4.35-.06-6.48-.18-2.13-.12-4.35-.43-6.66-.92,0,1.71.03,4.21.09,7.5.06,3.29.12,6.77.18,10.43.06,3.66.09,7.26.09,10.8v8.6c.24,1.1.92,1.92,2.01,2.47,1.1.55,2.41.98,3.93,1.28,1.52.3,3.11.52,4.76.64,1.65.12,3.08.24,4.3.37v2.01h-45.2v-2.01c1.22-.12,2.68-.34,4.39-.64,1.71-.31,3.32-.7,4.85-1.19,1.52-.49,2.81-1.1,3.84-1.83,1.03-.73,1.55-1.59,1.55-2.56v-101.38c0-.98-.09-1.71-.27-2.2-.18-.49-.7-1.04-1.56-1.65-1.1-.61-2.87-1.49-5.31-2.65-2.44-1.16-4.39-2.04-5.86-2.65v-1.1l27.08-10.61h1.1v20.5l.18.37c1.7-2.32,3.59-4.7,5.66-7.14,2.07-2.44,4.38-4.67,6.93-6.68,2.55-2.01,5.32-3.69,8.3-5.03,2.98-1.34,6.23-2.01,9.76-2.01,5.72,0,10.67,1.16,14.87,3.48,4.2,2.32,7.66,5.37,10.4,9.15,2.74,3.78,4.78,8.05,6.11,12.81,1.34,4.76,2.01,9.58,2.01,14.46,0,6.83-1.19,13.18-3.56,19.03ZM395.65,77.59c-1.1-4.03-2.77-7.53-5.02-10.52-2.25-2.99-5.1-5.37-8.57-7.14-3.47-1.77-7.51-2.65-12.12-2.65-3.16,0-5.99.58-8.48,1.74-2.49,1.16-4.62,2.5-6.38,4.03-1.76,1.53-3.1,3.08-4.01,4.67-.91,1.59-1.37,2.75-1.37,3.48,0,2.44-.03,5.03-.09,7.78-.06,2.75-.09,5.16-.09,7.23v11.71c0,2.81.06,5.61.18,8.42.24,2.56.67,5.22,1.28,7.96.61,2.74,1.64,5.25,3.1,7.5,1.46,2.26,3.46,4.09,6.02,5.49,2.55,1.4,5.83,2.1,9.84,2.1,3.52,0,6.92-.97,10.21-2.93,3.28-1.95,6.2-4.63,8.75-8.05,2.55-3.41,4.59-7.5,6.11-12.26,1.52-4.76,2.28-9.94,2.28-15.56,0-4.64-.55-8.97-1.64-12.99Z"/>
      <path class="cls-1" d="M493.36,115.02c-1.71,3.36-4.03,6.44-6.95,9.24-2.93,2.81-6.44,5.12-10.52,6.95-4.09,1.83-8.63,2.75-13.63,2.75-6.22,0-11.89-1.16-17.02-3.48-5.12-2.32-9.49-5.58-13.08-9.79-3.6-4.21-6.38-9.15-8.33-14.82-1.95-5.67-2.93-11.68-2.93-18.03,0-5.12.92-10.22,2.75-15.28,1.83-5.06,4.42-9.61,7.78-13.63,3.35-4.03,7.44-7.29,12.26-9.79,4.82-2.5,10.16-3.75,16.01-3.75,4.76,0,9.24.61,13.45,1.83,4.21,1.22,7.87,3.08,10.98,5.58,3.11,2.5,5.64,5.64,7.59,9.42,1.95,3.78,3.11,8.24,3.48,13.36h-58.74c0,.98-.06,2.1-.18,3.39-.12,1.28-.18,2.59-.18,3.93,0,5.12.73,10.04,2.2,14.73,1.46,4.7,3.6,8.85,6.4,12.44,2.81,3.6,6.34,6.44,10.61,8.51,4.27,2.08,9.21,3.11,14.82,3.11,6.1,0,11.44-1.56,16.01-4.67,4.57-3.11,7.59-6.92,9.06-11.44l1.46.37c-.49,2.69-1.59,5.71-3.29,9.06ZM472.41,53.34c-3.11-3.23-7.29-4.85-12.54-4.85-3.42,0-6.5,1.01-9.24,3.02-2.75,2.01-5.12,4.36-7.14,7.05-2.01,2.69-3.57,5.4-4.67,8.14-1.1,2.74-1.77,4.85-2.01,6.31h7.5c2.2,0,4.36-.03,6.5-.09,2.13-.06,4.36-.12,6.68-.18,2.32-.06,4.88-.09,7.69-.09,1.83,0,3.54-.06,5.12-.18,1.58-.12,2.99-.43,4.21-.92.85-.97,1.49-1.89,1.92-2.74.43-.85.64-2.13.64-3.84,0-4.51-1.56-8.39-4.67-11.62Z"/>
      <path class="cls-1" d="M561.8,61.76c-1.59,1.77-3.42,2.65-5.49,2.65-1.95,0-3.51-.33-4.67-1.01-1.16-.67-2.17-1.43-3.02-2.29-.86-.85-1.77-1.62-2.75-2.29-.98-.67-2.32-1.01-4.03-1.01-1.46,0-2.9.52-4.3,1.56-1.4,1.04-2.72,2.35-3.93,3.93-1.22,1.59-2.32,3.39-3.29,5.4-.98,2.01-1.83,3.93-2.56,5.76v52.7c.37,1.1,1.16,1.95,2.38,2.56,1.22.61,2.59,1.04,4.12,1.28,1.52.25,3.11.4,4.76.46,1.65.06,3.08.21,4.3.46v1.83h-40.99v-1.83c2.81-.24,5.22-.79,7.23-1.65,2.01-.85,3.02-2.26,3.02-4.21v-61.85c0-.98-.09-1.71-.27-2.2-.18-.49-.7-1.04-1.56-1.65-1.1-.61-2.38-1.37-3.84-2.29s-2.93-1.68-4.39-2.29v-1.1l23.97-9.33h1.1l-.37,25.44h.37c.61-1.46,1.58-3.6,2.93-6.4,1.34-2.81,3.05-5.64,5.12-8.51,2.07-2.86,4.58-5.34,7.5-7.41,2.93-2.07,6.28-3.11,10.06-3.11,3.05,0,5.64.92,7.78,2.75,2.13,1.83,3.2,4.15,3.2,6.95s-.79,4.91-2.38,6.68Z"/>
    </g>
  </g>
</svg>